<svg width="144" height="48" viewBox="0 0 144 48" fill="none" xmlns="http://www.w3.org/2000/svg">
<g clip-path="url(#clip0_0_2009)">
<rect width="144" height="48" rx="8" fill="#232340"/>
<path d="M120 22L116 26L112 22" stroke="white" stroke-width="2" stroke-linecap="round" stroke-linejoin="round"/>
<path d="M24.8848 28H30.7559V26.7461H26.9297V26.623L28.623 24.9824C30.1641 23.5 30.627 22.7383 30.627 21.7773V21.7598C30.627 20.3359 29.4434 19.334 27.7969 19.334C26.0332 19.334 24.8027 20.4355 24.8027 22.0117L24.8086 22.0293L26.2148 22.0352L26.2207 22.0117C26.2207 21.1387 26.8242 20.5469 27.7207 20.5469C28.5996 20.5469 29.1328 21.1094 29.1328 21.8887V21.9062C29.1328 22.5566 28.8105 22.9844 27.6621 24.1445L24.8848 26.9805V28ZM35.5312 28.2109C37.541 28.2109 38.7598 26.5059 38.7598 23.7754V23.7637C38.7598 21.0332 37.541 19.334 35.5312 19.334C33.5215 19.334 32.3145 21.0332 32.3145 23.7637V23.7754C32.3145 26.5059 33.5215 28.2109 35.5312 28.2109ZM35.5312 26.9863C34.4531 26.9863 33.8379 25.7793 33.8379 23.7754V23.7637C33.8379 21.7598 34.4531 20.5645 35.5312 20.5645C36.6094 20.5645 37.2363 21.7598 37.2363 23.7637V23.7754C37.2363 25.7793 36.6094 26.9863 35.5312 26.9863ZM40.4121 28H46.2832V26.7461H42.457V26.623L44.1504 24.9824C45.6914 23.5 46.1543 22.7383 46.1543 21.7773V21.7598C46.1543 20.3359 44.9707 19.334 43.3242 19.334C41.5605 19.334 40.3301 20.4355 40.3301 22.0117L40.3359 22.0293L41.7422 22.0352L41.748 22.0117C41.748 21.1387 42.3516 20.5469 43.248 20.5469C44.127 20.5469 44.6602 21.1094 44.6602 21.8887V21.9062C44.6602 22.5566 44.3379 22.9844 43.1895 24.1445L40.4121 26.9805V28ZM51.0586 28.2109C53.0684 28.2109 54.2871 26.5059 54.2871 23.7754V23.7637C54.2871 21.0332 53.0684 19.334 51.0586 19.334C49.0488 19.334 47.8418 21.0332 47.8418 23.7637V23.7754C47.8418 26.5059 49.0488 28.2109 51.0586 28.2109ZM51.0586 26.9863C49.9805 26.9863 49.3652 25.7793 49.3652 23.7754V23.7637C49.3652 21.7598 49.9805 20.5645 51.0586 20.5645C52.1367 20.5645 52.7637 21.7598 52.7637 23.7637V23.7754C52.7637 25.7793 52.1367 26.9863 51.0586 26.9863Z" fill="white"/>
</g>
<defs>
<clipPath id="clip0_0_2009">
<rect width="144" height="48" fill="white"/>
</clipPath>
</defs>
</svg>
