<svg width="311" height="48" viewBox="0 0 311 48" fill="none" xmlns="http://www.w3.org/2000/svg">
<g clip-path="url(#clip0_0_2371)">
<rect width="311" height="48" rx="8" stroke="#D8D8D8"/>
<path d="M287 22L283 26L279 22" stroke="#232340" stroke-width="2" stroke-linecap="round" stroke-linejoin="round"/>
<path d="M25.043 28H26.5547V24.332H30.668V28H32.1738V19.5449H30.668V23.0605H26.5547V19.5449H25.043V28ZM36.8789 28.1289C38.7949 28.1289 39.9609 26.875 39.9609 24.8008V24.7891C39.9609 22.7266 38.7891 21.4727 36.8789 21.4727C34.9746 21.4727 33.7969 22.7324 33.7969 24.7891V24.8008C33.7969 26.875 34.957 28.1289 36.8789 28.1289ZM36.8789 26.9453C35.8652 26.9453 35.2852 26.1543 35.2852 24.8066V24.7949C35.2852 23.4473 35.8652 22.6504 36.8789 22.6504C37.8867 22.6504 38.4668 23.4473 38.4668 24.7949V24.8066C38.4668 26.1543 37.8926 26.9453 36.8789 26.9453ZM41.4258 28H42.8848V24.1035C42.8848 23.3066 43.4121 22.6973 44.1328 22.6973C44.8477 22.6973 45.2871 23.1367 45.2871 23.8457V28H46.7461V23.998C46.7461 23.2656 47.2383 22.6973 48 22.6973C48.7793 22.6973 49.1602 23.1191 49.1602 23.9512V28H50.6191V23.5938C50.6191 22.2637 49.8457 21.4727 48.5566 21.4727C47.666 21.4727 46.9277 21.9297 46.6172 22.627H46.5176C46.2422 21.918 45.6094 21.4727 44.7422 21.4727C43.9043 21.4727 43.2598 21.877 42.9844 22.5918H42.8848V21.5957H41.4258V28ZM55.0898 28.1289C56.8301 28.1289 57.6855 27.127 57.8906 26.3008L57.9082 26.248H56.5195L56.502 26.2891C56.3613 26.582 55.9102 26.9805 55.1191 26.9805C54.1289 26.9805 53.5078 26.3125 53.4902 25.1641H57.9668V24.6836C57.9668 22.75 56.8418 21.4727 55.0195 21.4727C53.1973 21.4727 52.0312 22.791 52.0312 24.8066V24.8125C52.0312 26.8516 53.1855 28.1289 55.0898 28.1289ZM55.0371 22.6152C55.8516 22.6152 56.4434 23.1367 56.543 24.1855H53.502C53.6133 23.166 54.2227 22.6152 55.0371 22.6152Z" fill="#606060"/>
</g>
<defs>
<clipPath id="clip0_0_2371">
<rect width="311" height="48" fill="white"/>
</clipPath>
</defs>
</svg>
