<svg width="823" height="43" viewBox="0 0 823 43" fill="none" xmlns="http://www.w3.org/2000/svg">
<g clip-path="url(#clip0_0_1706)">
<path d="M10.0781 36.063C10.0781 33.4438 8.02148 31.3872 5.40234 31.3872H5.36133C2.74219 31.3872 0.685547 33.4438 0.685547 36.063V36.104C0.685547 38.7231 2.74219 40.7798 5.36133 40.7798H5.40234C8.02148 40.7798 10.0781 38.7231 10.0781 36.104V36.063ZM9.14062 36.063V36.104C9.14062 38.1958 7.5 39.8423 5.40234 39.8423H5.36133C3.26953 39.8423 1.62305 38.1958 1.62305 36.104V36.063C1.62305 33.9712 3.26953 32.3247 5.36133 32.3247H5.40234C7.5 32.3247 9.14062 33.9712 9.14062 36.063ZM5.46094 38.3071C6.57422 38.3071 7.35352 37.645 7.44141 36.6899V36.6372H6.42773L6.42188 36.6724C6.33398 37.106 5.9707 37.3989 5.46094 37.3989C4.79883 37.3989 4.39453 36.895 4.39453 36.0864V36.0806C4.39453 35.2603 4.79883 34.7681 5.45508 34.7681C5.96484 34.7681 6.3457 35.0845 6.42773 35.5181V35.5415H7.44141V35.4888C7.36523 34.5454 6.55664 33.8599 5.45508 33.8599C4.13672 33.8599 3.32227 34.7036 3.32227 36.0806V36.0864C3.32227 37.4634 4.13672 38.3071 5.46094 38.3071ZM14.8535 40.311H20.7246V39.0571H16.8984V38.9341L18.5918 37.2935C20.1328 35.811 20.5957 35.0493 20.5957 34.0884V34.0708C20.5957 32.647 19.4121 31.645 17.7656 31.645C16.002 31.645 14.7715 32.7466 14.7715 34.3228L14.7773 34.3403L16.1836 34.3462L16.1895 34.3228C16.1895 33.4497 16.793 32.8579 17.6895 32.8579C18.5684 32.8579 19.1016 33.4204 19.1016 34.1997V34.2173C19.1016 34.8677 18.7793 35.2954 17.6309 36.4556L14.8535 39.2915V40.311ZM25.5 40.522C27.5098 40.522 28.7285 38.8169 28.7285 36.0864V36.0747C28.7285 33.3442 27.5098 31.645 25.5 31.645C23.4902 31.645 22.2832 33.3442 22.2832 36.0747V36.0864C22.2832 38.8169 23.4902 40.522 25.5 40.522ZM25.5 39.2974C24.4219 39.2974 23.8066 38.0903 23.8066 36.0864V36.0747C23.8066 34.0708 24.4219 32.8755 25.5 32.8755C26.5781 32.8755 27.2051 34.0708 27.2051 36.0747V36.0864C27.2051 38.0903 26.5781 39.2974 25.5 39.2974ZM30.3809 40.311H36.252V39.0571H32.4258V38.9341L34.1191 37.2935C35.6602 35.811 36.123 35.0493 36.123 34.0884V34.0708C36.123 32.647 34.9395 31.645 33.293 31.645C31.5293 31.645 30.2988 32.7466 30.2988 34.3228L30.3047 34.3403L31.7109 34.3462L31.7168 34.3228C31.7168 33.4497 32.3203 32.8579 33.2168 32.8579C34.0957 32.8579 34.6289 33.4204 34.6289 34.1997V34.2173C34.6289 34.8677 34.3066 35.2954 33.1582 36.4556L30.3809 39.2915V40.311ZM41.0273 40.522C43.0371 40.522 44.2559 38.8169 44.2559 36.0864V36.0747C44.2559 33.3442 43.0371 31.645 41.0273 31.645C39.0176 31.645 37.8105 33.3442 37.8105 36.0747V36.0864C37.8105 38.8169 39.0176 40.522 41.0273 40.522ZM41.0273 39.2974C39.9492 39.2974 39.334 38.0903 39.334 36.0864V36.0747C39.334 34.0708 39.9492 32.8755 41.0273 32.8755C42.1055 32.8755 42.7324 34.0708 42.7324 36.0747V36.0864C42.7324 38.0903 42.1055 39.2974 41.0273 39.2974ZM45.1582 42.5435H46.1543L47.1738 39.022H45.668L45.1582 42.5435ZM56.1211 40.522C58.2715 40.522 59.5957 39.2622 59.5957 37.3989V31.856H58.084V37.2759C58.084 38.4419 57.3809 39.2153 56.127 39.2153C54.8672 39.2153 54.1582 38.4419 54.1582 37.2759V31.856H52.6465V37.3989C52.6465 39.2622 53.9824 40.522 56.1211 40.522ZM61.6758 40.311H63.1875V31.856H61.6758V40.311ZM68.2734 40.481C70.2188 40.481 71.5723 39.4731 71.5723 38.0259V38.0142C71.5723 36.9302 70.7871 36.0923 69.6562 35.8638V35.8286C70.623 35.5708 71.2676 34.8618 71.2676 33.9536V33.9419C71.2676 32.6411 70.0254 31.686 68.2734 31.686C66.5215 31.686 65.2793 32.6411 65.2793 33.9419V33.9536C65.2793 34.8618 65.9238 35.5708 66.8906 35.8286V35.8638C65.7656 36.0923 64.9746 36.9302 64.9746 38.0142V38.0259C64.9746 39.4731 66.3281 40.481 68.2734 40.481ZM68.2734 35.3481C67.3887 35.3481 66.7734 34.8325 66.7734 34.0942V34.0825C66.7734 33.3442 67.3887 32.8286 68.2734 32.8286C69.1582 32.8286 69.7734 33.3442 69.7734 34.0825V34.0942C69.7734 34.8325 69.1582 35.3481 68.2734 35.3481ZM68.2734 39.3267C67.2598 39.3267 66.5391 38.7407 66.5391 37.9263V37.9146C66.5391 37.0942 67.248 36.5024 68.2734 36.5024C69.293 36.5024 70.0078 37.0942 70.0078 37.9146V37.9263C70.0078 38.7407 69.2871 39.3267 68.2734 39.3267ZM76.5586 40.311H81.9492V39.0396H78.0703V31.856H76.5586V40.311ZM83.5781 40.311H88.9688V39.0396H85.0898V31.856H83.5781V40.311ZM93.8438 40.522C95.7949 40.522 97.1953 39.3911 97.418 37.6978V37.6567H95.9355L95.9297 37.686C95.7129 38.6177 94.916 39.2153 93.8438 39.2153C92.4023 39.2153 91.5059 38.0142 91.5059 36.0864V36.0747C91.5059 34.1528 92.4023 32.9517 93.8379 32.9517C94.9043 32.9517 95.7129 33.6138 95.9297 34.6157L95.9355 34.6392H97.418V34.5923C97.2188 32.8638 95.7598 31.645 93.8379 31.645C91.4414 31.645 89.959 33.3384 89.959 36.0806V36.0923C89.959 38.8228 91.4473 40.522 93.8438 40.522ZM100.037 40.4282C100.576 40.4282 100.969 40.0181 100.969 39.5024C100.969 38.981 100.576 38.5767 100.037 38.5767C99.5039 38.5767 99.1055 38.981 99.1055 39.5024C99.1055 40.0181 99.5039 40.4282 100.037 40.4282Z" fill="#ADADAD"/>
<path d="M660.555 36V32.5488H664.1V31.3184H660.555V28.8164H664.434V27.5449H659.043V36H660.555ZM668.723 36.1289C670.639 36.1289 671.805 34.875 671.805 32.7949C671.805 30.7266 670.633 29.4727 668.723 29.4727C666.818 29.4727 665.641 30.7324 665.641 32.7949C665.641 34.875 666.801 36.1289 668.723 36.1289ZM668.723 34.9395C667.709 34.9395 667.129 34.1543 667.129 32.8008C667.129 31.4473 667.709 30.6621 668.723 30.6621C669.73 30.6621 670.311 31.4473 670.311 32.8008C670.311 34.1543 669.736 34.9395 668.723 34.9395ZM673.328 36H674.781V27.1172H673.328V36ZM676.68 36H678.133V27.1172H676.68V36ZM682.738 36.1289C684.654 36.1289 685.82 34.875 685.82 32.7949C685.82 30.7266 684.648 29.4727 682.738 29.4727C680.834 29.4727 679.656 30.7324 679.656 32.7949C679.656 34.875 680.816 36.1289 682.738 36.1289ZM682.738 34.9395C681.725 34.9395 681.145 34.1543 681.145 32.8008C681.145 31.4473 681.725 30.6621 682.738 30.6621C683.746 30.6621 684.326 31.4473 684.326 32.8008C684.326 34.1543 683.752 34.9395 682.738 34.9395ZM695.611 29.5957H694.164L693.104 34.4062H693.004L691.762 29.5957H690.373L689.143 34.4062H689.043L687.977 29.5957H686.512L688.246 36H689.758L691 31.3594H691.1L692.348 36H693.877L695.611 29.5957ZM705.66 29.5957H704.207V33.3281C704.207 34.2949 703.691 34.8809 702.748 34.8809C701.881 34.8809 701.477 34.4004 701.477 33.4043V29.5957H700.023V33.7559C700.023 35.2559 700.844 36.1289 702.244 36.1289C703.223 36.1289 703.85 35.7129 704.16 34.9805H704.26V36H705.66V29.5957ZM707.295 31.4238C707.295 32.3848 707.875 32.9473 709.105 33.2285L710.242 33.4922C710.852 33.6328 711.127 33.8672 711.127 34.2305C711.127 34.7168 710.617 35.0508 709.885 35.0508C709.158 35.0508 708.707 34.7578 708.566 34.2832H707.131C707.242 35.4375 708.25 36.1289 709.85 36.1289C711.449 36.1289 712.58 35.3145 712.58 34.0898C712.58 33.1465 712.012 32.625 710.787 32.3438L709.656 32.0918C709.012 31.9395 708.707 31.7109 708.707 31.3477C708.707 30.873 709.205 30.5508 709.867 30.5508C710.547 30.5508 710.975 30.8438 711.08 31.2949H712.445C712.34 30.1406 711.385 29.4727 709.861 29.4727C708.35 29.4727 707.295 30.2754 707.295 31.4238Z" fill="#5468E7"/>
<rect y="0.311035" width="823" height="1" fill="#D8D8D8"/>
<g clip-path="url(#clip1_0_1706)">
<path fill-rule="evenodd" clip-rule="evenodd" d="M750.28 31.723C750.281 28.6965 747.932 26.1993 744.936 26.0407C741.94 25.882 739.345 28.1175 739.031 31.1274C738.718 34.1373 740.795 36.8679 743.759 37.3407V33.3671H742.327V31.723H743.759V30.4693C743.697 29.8768 743.898 29.287 744.31 28.8594C744.721 28.4319 745.3 28.2109 745.889 28.2563C746.312 28.2619 746.734 28.299 747.151 28.3672V29.7688H746.441C746.196 29.7365 745.949 29.8183 745.771 29.9912C745.593 30.1641 745.502 30.4093 745.524 30.6577V31.7244H747.089L746.838 33.3685H745.521V37.3443C748.263 36.9069 750.281 34.5226 750.28 31.723Z" fill="#ADADAD"/>
<path fill-rule="evenodd" clip-rule="evenodd" d="M786.139 29.9911C785.998 29.0667 785.575 28.4267 784.588 28.2844C783.037 28 780.64 28 780.64 28C780.64 28 778.243 28 776.692 28.2844C775.705 28.4267 775.211 29.0667 775.141 29.9911C775 30.9156 775 32.2667 775 32.2667C775 32.2667 775 33.6178 775.141 34.5422C775.282 35.4667 775.705 36.1067 776.692 36.2489C778.243 36.5333 780.64 36.5333 780.64 36.5333C780.64 36.5333 783.037 36.5333 784.588 36.2489C785.575 36.0356 785.998 35.4667 786.139 34.5422C786.28 33.6178 786.28 32.2667 786.28 32.2667C786.28 32.2667 786.28 30.9156 786.139 29.9911ZM779.23 34.4V30.1333L782.755 32.2667L779.23 34.4Z" fill="#ADADAD"/>
<ellipse cx="819.562" cy="28.7676" rx="0.676782" ry="0.682667" fill="#ADADAD"/>
<path fill-rule="evenodd" clip-rule="evenodd" d="M816.64 34.5331C815.085 34.5331 813.82 33.2574 813.82 31.6887C813.82 30.12 815.085 28.8442 816.64 28.8442C818.195 28.8442 819.46 30.12 819.46 31.6887C819.46 33.2574 818.195 34.5331 816.64 34.5331ZM816.64 30.2665C815.863 30.2665 815.23 30.9043 815.23 31.6887C815.23 32.473 815.863 33.1109 816.64 33.1109C817.418 33.1109 818.05 32.473 818.05 31.6887C818.05 30.9043 817.418 30.2665 816.64 30.2665Z" fill="#ADADAD"/>
<path fill-rule="evenodd" clip-rule="evenodd" d="M819.46 37.3778H813.82C812.37 37.3778 811 35.9954 811 34.5333V28.8444C811 27.3824 812.37 26 813.82 26H819.46C820.909 26 822.28 27.3824 822.28 28.8444V34.5333C822.28 35.9954 820.909 37.3778 819.46 37.3778ZM813.82 27.4222C813.161 27.4222 812.41 28.1796 812.41 28.8444V34.5333C812.41 35.211 813.148 35.9556 813.82 35.9556H819.46C820.119 35.9556 820.87 35.1982 820.87 34.5333V28.8444C820.87 28.1796 820.119 27.4222 819.46 27.4222H813.82Z" fill="#ADADAD"/>
</g>
</g>
<defs>
<clipPath id="clip0_0_1706">
<rect width="823" height="42" fill="white" transform="translate(0 0.311035)"/>
</clipPath>
<clipPath id="clip1_0_1706">
<rect width="84" height="12" fill="white" transform="translate(739 26)"/>
</clipPath>
</defs>
</svg>
