<svg width="136" height="88" viewBox="0 0 136 88" fill="none" xmlns="http://www.w3.org/2000/svg">
<g clip-path="url(#clip0_0_2349)">
<path d="M27.0781 79.752C27.0781 77.1328 25.0215 75.0762 22.4023 75.0762H22.3613C19.7422 75.0762 17.6855 77.1328 17.6855 79.752V79.793C17.6855 82.4121 19.7422 84.4688 22.3613 84.4688H22.4023C25.0215 84.4688 27.0781 82.4121 27.0781 79.793V79.752ZM26.1406 79.752V79.793C26.1406 81.8848 24.5 83.5312 22.4023 83.5312H22.3613C20.2695 83.5312 18.623 81.8848 18.623 79.793V79.752C18.623 77.6602 20.2695 76.0137 22.3613 76.0137H22.4023C24.5 76.0137 26.1406 77.6602 26.1406 79.752ZM22.4609 81.9961C23.5742 81.9961 24.3535 81.334 24.4414 80.3789V80.3262H23.4277L23.4219 80.3613C23.334 80.7949 22.9707 81.0879 22.4609 81.0879C21.7988 81.0879 21.3945 80.584 21.3945 79.7754V79.7695C21.3945 78.9492 21.7988 78.457 22.4551 78.457C22.9648 78.457 23.3457 78.7734 23.4277 79.207V79.2305H24.4414V79.1777C24.3652 78.2344 23.5566 77.5488 22.4551 77.5488C21.1367 77.5488 20.3223 78.3926 20.3223 79.7695V79.7754C20.3223 81.1523 21.1367 81.9961 22.4609 81.9961ZM31.8535 84H37.7246V82.7461H33.8984V82.623L35.5918 80.9824C37.1328 79.5 37.5957 78.7383 37.5957 77.7773V77.7598C37.5957 76.3359 36.4121 75.334 34.7656 75.334C33.002 75.334 31.7715 76.4355 31.7715 78.0117L31.7773 78.0293L33.1836 78.0352L33.1895 78.0117C33.1895 77.1387 33.793 76.5469 34.6895 76.5469C35.5684 76.5469 36.1016 77.1094 36.1016 77.8887V77.9062C36.1016 78.5566 35.7793 78.9844 34.6309 80.1445L31.8535 82.9805V84ZM42.5 84.2109C44.5098 84.2109 45.7285 82.5059 45.7285 79.7754V79.7637C45.7285 77.0332 44.5098 75.334 42.5 75.334C40.4902 75.334 39.2832 77.0332 39.2832 79.7637V79.7754C39.2832 82.5059 40.4902 84.2109 42.5 84.2109ZM42.5 82.9863C41.4219 82.9863 40.8066 81.7793 40.8066 79.7754V79.7637C40.8066 77.7598 41.4219 76.5645 42.5 76.5645C43.5781 76.5645 44.2051 77.7598 44.2051 79.7637V79.7754C44.2051 81.7793 43.5781 82.9863 42.5 82.9863ZM47.3809 84H53.252V82.7461H49.4258V82.623L51.1191 80.9824C52.6602 79.5 53.123 78.7383 53.123 77.7773V77.7598C53.123 76.3359 51.9395 75.334 50.293 75.334C48.5293 75.334 47.2988 76.4355 47.2988 78.0117L47.3047 78.0293L48.7109 78.0352L48.7168 78.0117C48.7168 77.1387 49.3203 76.5469 50.2168 76.5469C51.0957 76.5469 51.6289 77.1094 51.6289 77.8887V77.9062C51.6289 78.5566 51.3066 78.9844 50.1582 80.1445L47.3809 82.9805V84ZM58.0273 84.2109C60.0371 84.2109 61.2559 82.5059 61.2559 79.7754V79.7637C61.2559 77.0332 60.0371 75.334 58.0273 75.334C56.0176 75.334 54.8105 77.0332 54.8105 79.7637V79.7754C54.8105 82.5059 56.0176 84.2109 58.0273 84.2109ZM58.0273 82.9863C56.9492 82.9863 56.334 81.7793 56.334 79.7754V79.7637C56.334 77.7598 56.9492 76.5645 58.0273 76.5645C59.1055 76.5645 59.7324 77.7598 59.7324 79.7637V79.7754C59.7324 81.7793 59.1055 82.9863 58.0273 82.9863ZM62.1582 86.2324H63.1543L64.1738 82.7109H62.668L62.1582 86.2324ZM73.1211 84.2109C75.2715 84.2109 76.5957 82.9512 76.5957 81.0879V75.5449H75.084V80.9648C75.084 82.1309 74.3809 82.9043 73.127 82.9043C71.8672 82.9043 71.1582 82.1309 71.1582 80.9648V75.5449H69.6465V81.0879C69.6465 82.9512 70.9824 84.2109 73.1211 84.2109ZM78.6758 84H80.1875V75.5449H78.6758V84ZM85.2734 84.1699C87.2188 84.1699 88.5723 83.1621 88.5723 81.7148V81.7031C88.5723 80.6191 87.7871 79.7812 86.6562 79.5527V79.5176C87.623 79.2598 88.2676 78.5508 88.2676 77.6426V77.6309C88.2676 76.3301 87.0254 75.375 85.2734 75.375C83.5215 75.375 82.2793 76.3301 82.2793 77.6309V77.6426C82.2793 78.5508 82.9238 79.2598 83.8906 79.5176V79.5527C82.7656 79.7812 81.9746 80.6191 81.9746 81.7031V81.7148C81.9746 83.1621 83.3281 84.1699 85.2734 84.1699ZM85.2734 79.0371C84.3887 79.0371 83.7734 78.5215 83.7734 77.7832V77.7715C83.7734 77.0332 84.3887 76.5176 85.2734 76.5176C86.1582 76.5176 86.7734 77.0332 86.7734 77.7715V77.7832C86.7734 78.5215 86.1582 79.0371 85.2734 79.0371ZM85.2734 83.0156C84.2598 83.0156 83.5391 82.4297 83.5391 81.6152V81.6035C83.5391 80.7832 84.248 80.1914 85.2734 80.1914C86.293 80.1914 87.0078 80.7832 87.0078 81.6035V81.6152C87.0078 82.4297 86.2871 83.0156 85.2734 83.0156ZM93.5586 84H98.9492V82.7285H95.0703V75.5449H93.5586V84ZM100.578 84H105.969V82.7285H102.09V75.5449H100.578V84ZM110.844 84.2109C112.795 84.2109 114.195 83.0801 114.418 81.3867V81.3457H112.936L112.93 81.375C112.713 82.3066 111.916 82.9043 110.844 82.9043C109.402 82.9043 108.506 81.7031 108.506 79.7754V79.7637C108.506 77.8418 109.402 76.6406 110.838 76.6406C111.904 76.6406 112.713 77.3027 112.93 78.3047L112.936 78.3281H114.418V78.2812C114.219 76.5527 112.76 75.334 110.838 75.334C108.441 75.334 106.959 77.0273 106.959 79.7695V79.7812C106.959 82.5117 108.447 84.2109 110.844 84.2109ZM117.037 84.1172C117.576 84.1172 117.969 83.707 117.969 83.1914C117.969 82.6699 117.576 82.2656 117.037 82.2656C116.504 82.2656 116.105 82.6699 116.105 83.1914C116.105 83.707 116.504 84.1172 117.037 84.1172Z" fill="#ADADAD"/>
<circle cx="20" cy="20" r="20" fill="#5468E7"/>
<path fill-rule="evenodd" clip-rule="evenodd" d="M26 19.5335C26.0006 16.5904 23.7103 14.162 20.7885 14.0077C17.8666 13.8535 15.3362 16.0273 15.0305 18.9543C14.7248 21.8813 16.7509 24.5367 19.6408 24.9965V21.1323H18.2446V19.5335H19.6408V18.3144C19.58 17.7382 19.7768 17.1646 20.178 16.7489C20.5792 16.3331 21.1434 16.1182 21.7177 16.1623C22.1302 16.1678 22.5418 16.2038 22.949 16.2702V17.6332H22.256C22.0169 17.6018 21.7765 17.6813 21.6027 17.8494C21.4289 18.0176 21.3404 18.256 21.3623 18.4976V19.5349H22.8878L22.6437 21.1337H21.3595V25C24.0328 24.5746 26.0011 22.256 26 19.5335Z" fill="white"/>
<g clip-path="url(#clip1_0_2349)">
<circle cx="68" cy="20" r="20" fill="white" stroke="#D8D8D8"/>
<path fill-rule="evenodd" clip-rule="evenodd" d="M73.1387 17.9911C72.9977 17.0667 72.5747 16.4267 71.5877 16.2844C70.0368 16 67.6398 16 67.6398 16C67.6398 16 65.2429 16 63.692 16.2844C62.705 16.4267 62.2115 17.0667 62.141 17.9911C62 18.9156 62 20.2667 62 20.2667C62 20.2667 62 21.6178 62.141 22.5422C62.282 23.4667 62.705 24.1067 63.692 24.2489C65.2429 24.5333 67.6398 24.5333 67.6398 24.5333C67.6398 24.5333 70.0368 24.5333 71.5877 24.2489C72.5747 24.0356 72.9977 23.4667 73.1387 22.5422C73.2797 21.6178 73.2797 20.2667 73.2797 20.2667C73.2797 20.2667 73.2797 18.9156 73.1387 17.9911ZM66.2299 22.4V18.1333L69.7548 20.2667L66.2299 22.4Z" fill="#ADADAD"/>
</g>
<g clip-path="url(#clip2_0_2349)">
<circle cx="116" cy="20" r="20" fill="white" stroke="#D8D8D8"/>
<ellipse cx="118.562" cy="16.7677" rx="0.676782" ry="0.682667" fill="#ADADAD"/>
<path fill-rule="evenodd" clip-rule="evenodd" d="M115.64 22.5333C114.085 22.5333 112.82 21.2576 112.82 19.6889C112.82 18.1202 114.085 16.8445 115.64 16.8445C117.195 16.8445 118.46 18.1202 118.46 19.6889C118.46 21.2576 117.195 22.5333 115.64 22.5333ZM115.64 18.2667C114.862 18.2667 114.23 18.9045 114.23 19.6889C114.23 20.4733 114.862 21.1111 115.64 21.1111C116.417 21.1111 117.05 20.4733 117.05 19.6889C117.05 18.9045 116.417 18.2667 115.64 18.2667Z" fill="#ADADAD"/>
<path fill-rule="evenodd" clip-rule="evenodd" d="M118.46 25.3778H112.82C111.37 25.3778 110 23.9954 110 22.5333V16.8444C110 15.3824 111.37 14 112.82 14H118.46C119.909 14 121.28 15.3824 121.28 16.8444V22.5333C121.28 23.9954 119.909 25.3778 118.46 25.3778ZM112.82 15.4222C112.161 15.4222 111.41 16.1796 111.41 16.8444V22.5333C111.41 23.211 112.148 23.9556 112.82 23.9556H118.46C119.119 23.9556 119.87 23.1982 119.87 22.5333V16.8444C119.87 16.1796 119.119 15.4222 118.46 15.4222H112.82Z" fill="#ADADAD"/>
</g>
</g>
<defs>
<clipPath id="clip0_0_2349">
<rect width="136" height="88" fill="white"/>
</clipPath>
<clipPath id="clip1_0_2349">
<rect width="40" height="40" fill="white" transform="translate(48)"/>
</clipPath>
<clipPath id="clip2_0_2349">
<rect width="40" height="40" fill="white" transform="translate(96)"/>
</clipPath>
</defs>
</svg>
