<svg width="343" height="22" viewBox="0 0 343 22" fill="none" xmlns="http://www.w3.org/2000/svg">
<path d="M8.73438 17H10.8594L6.85938 5.72656H4.58594L0.585938 17H2.66406L3.625 14.0859H7.77344L8.73438 17ZM5.67188 7.71875H5.72656L7.29688 12.5312H4.09375L5.67188 7.71875ZM16.5078 17.1328C18.6016 17.1328 19.9219 15.5078 19.9219 12.8594C19.9219 10.2109 18.5938 8.57812 16.5078 8.57812C15.3359 8.57812 14.3906 9.17188 13.9219 10.1406H13.875V5.72656H11.9297V17H13.8359V15.5859H13.875C14.3594 16.5469 15.2891 17.1328 16.5078 17.1328ZM15.9062 10.1797C17.1484 10.1797 17.9297 11.2188 17.9297 12.8594C17.9297 14.5078 17.1562 15.5391 15.9062 15.5391C14.7031 15.5391 13.8672 14.4844 13.8672 12.8594C13.8672 11.25 14.7031 10.1797 15.9062 10.1797ZM24.8516 17.1641C27.2812 17.1641 28.8594 15.5469 28.8594 12.8594C28.8594 10.1797 27.2656 8.54688 24.8516 8.54688C22.4375 8.54688 20.8438 10.1875 20.8438 12.8594C20.8438 15.5469 22.4219 17.1641 24.8516 17.1641ZM24.8516 15.625C23.6172 15.625 22.8203 14.625 22.8203 12.8594C22.8203 11.1016 23.625 10.0938 24.8516 10.0938C26.0859 10.0938 26.8828 11.1016 26.8828 12.8594C26.8828 14.625 26.0859 15.625 24.8516 15.625ZM37.4531 8.71875H35.5078V13.5078C35.5078 14.7109 34.8125 15.5078 33.6875 15.5078C32.5938 15.5078 32.0156 14.8672 32.0156 13.6797V8.71875H30.0703V14.0703C30.0703 15.9844 31.2109 17.1484 33.0078 17.1484C34.2656 17.1484 35.1016 16.5703 35.5391 15.5625H35.5781V17H37.4531V8.71875ZM39.5859 6.78125V8.71875H38.3984V10.2188H39.5859V14.7969C39.5859 16.4062 40.2891 17.0391 42.0781 17.0391C42.4922 17.0391 42.875 17.0078 43.0859 16.9609V15.4766C42.9609 15.5 42.7109 15.5156 42.5312 15.5156C41.8438 15.5156 41.5312 15.2031 41.5312 14.5234V10.2188H43.0938V8.71875H41.5312V6.78125H39.5859Z" fill="#5468E7"/>
<path d="M108.055 8.84375L105.75 17H103.852L100.828 5.72656H102.922L104.875 14.2656H104.938L107.203 5.72656H108.984L111.25 14.2656H111.312L113.266 5.72656H115.359L112.336 17H110.438L108.133 8.84375H108.055ZM122.172 16.0156C121.448 16.7812 120.474 17.1641 119.25 17.1641C118.026 17.1641 117.052 16.7812 116.328 16.0156C115.604 15.2448 115.242 14.1927 115.242 12.8594C115.242 11.5312 115.607 10.4818 116.336 9.71094C117.065 8.9349 118.036 8.54688 119.25 8.54688C120.469 8.54688 121.44 8.9349 122.164 9.71094C122.893 10.4818 123.258 11.5312 123.258 12.8594C123.258 14.1927 122.896 15.2448 122.172 16.0156ZM117.766 14.8984C118.13 15.3828 118.625 15.625 119.25 15.625C119.875 15.625 120.37 15.3828 120.734 14.8984C121.099 14.4141 121.281 13.7344 121.281 12.8594C121.281 11.9896 121.099 11.3125 120.734 10.8281C120.37 10.3385 119.875 10.0938 119.25 10.0938C118.63 10.0938 118.135 10.3385 117.766 10.8281C117.401 11.3125 117.219 11.9896 117.219 12.8594C117.219 13.7344 117.401 14.4141 117.766 14.8984ZM124.508 17V8.71875H126.375V10.1641H126.414C126.555 9.65885 126.797 9.26823 127.141 8.99219C127.49 8.71615 127.909 8.57812 128.398 8.57812C128.57 8.57812 128.773 8.60417 129.008 8.65625V10.4141C128.815 10.3411 128.552 10.3047 128.219 10.3047C127.667 10.3047 127.234 10.4714 126.922 10.8047C126.609 11.138 126.453 11.5964 126.453 12.1797V17H124.508ZM132.031 12.1719L135.148 8.71875H137.391L134.078 12.2812L137.531 17H135.281L132.664 13.4609L132.008 14.125V17H130.062V5.72656H132.008V12.1719H132.031Z" fill="#8B8B8B"/>
<path d="M196.992 17.1953C199.742 17.1953 201.398 15.8594 201.398 13.7578V13.75C201.398 11.9922 200.375 11.0391 198.031 10.5547L196.812 10.3047C195.453 10.0234 194.836 9.55469 194.836 8.75781V8.75C194.836 7.85156 195.656 7.23438 196.977 7.22656C198.242 7.22656 199.109 7.8125 199.242 8.79688L199.258 8.89062H201.188L201.18 8.75781C201.062 6.82812 199.453 5.53125 196.992 5.53125C194.562 5.53125 192.82 6.875 192.812 8.85938V8.86719C192.812 10.5469 193.906 11.5781 196.125 12.0391L197.336 12.2891C198.789 12.5938 199.375 13.0469 199.375 13.8906V13.8984C199.375 14.8672 198.484 15.5 197.062 15.5C195.648 15.5 194.656 14.8984 194.508 13.9297L194.492 13.8359H192.562L192.57 13.9531C192.703 15.9766 194.406 17.1953 196.992 17.1953ZM206.352 17.1641C208.516 17.1641 209.734 15.8828 209.992 14.6094L210.016 14.5234H208.195L208.18 14.5781C207.992 15.1328 207.359 15.6484 206.391 15.6484C205.125 15.6484 204.328 14.7891 204.297 13.3359H210.094V12.7109C210.094 10.2109 208.625 8.54688 206.258 8.54688C203.891 8.54688 202.367 10.2656 202.367 12.875V12.8828C202.367 15.5156 203.867 17.1641 206.352 17.1641ZM206.281 10.0703C207.312 10.0703 208.062 10.7266 208.203 12.0391H204.32C204.477 10.7656 205.25 10.0703 206.281 10.0703ZM211.352 17H213.297V12.1484C213.297 10.9844 213.961 10.2734 215.062 10.2734C215.391 10.2734 215.688 10.3203 215.852 10.3828V8.625C215.703 8.58594 215.477 8.54688 215.234 8.54688C214.258 8.54688 213.531 9.13281 213.281 10.1016H213.242V8.71875H211.352V17ZM219.086 17H221.227L224.141 8.71875H222.109L220.195 15.1953H220.148L218.227 8.71875H216.156L219.086 17ZM226.07 7.53125C226.68 7.53125 227.148 7.04688 227.148 6.46875C227.148 5.875 226.68 5.39844 226.07 5.39844C225.461 5.39844 224.984 5.875 224.984 6.46875C224.984 7.04688 225.461 7.53125 226.07 7.53125ZM225.094 17H227.039V8.71875H225.094V17ZM232.352 17.1641C234.445 17.1641 235.844 15.8516 235.992 14.125L236 14.0703H234.164L234.148 14.1406C233.969 15.0078 233.344 15.5938 232.359 15.5938C231.133 15.5938 230.336 14.5938 230.336 12.8672V12.8594C230.336 11.1641 231.125 10.125 232.352 10.125C233.383 10.125 233.977 10.7734 234.141 11.5781L234.156 11.6484H235.992L235.984 11.5859C235.867 9.92969 234.508 8.54688 232.328 8.54688C229.914 8.54688 228.352 10.2031 228.352 12.8438V12.8516C228.352 15.5078 229.891 17.1641 232.352 17.1641ZM240.805 17.1641C242.969 17.1641 244.188 15.8828 244.445 14.6094L244.469 14.5234H242.648L242.633 14.5781C242.445 15.1328 241.812 15.6484 240.844 15.6484C239.578 15.6484 238.781 14.7891 238.75 13.3359H244.547V12.7109C244.547 10.2109 243.078 8.54688 240.711 8.54688C238.344 8.54688 236.82 10.2656 236.82 12.875V12.8828C236.82 15.5156 238.32 17.1641 240.805 17.1641ZM240.734 10.0703C241.766 10.0703 242.516 10.7266 242.656 12.0391H238.773C238.93 10.7656 239.703 10.0703 240.734 10.0703ZM249.039 17.1641C251.07 17.1641 252.516 16.1172 252.516 14.5547V14.5469C252.516 13.3438 251.852 12.6719 250.141 12.2891L248.758 11.9844C247.898 11.7891 247.578 11.4766 247.578 11V10.9922C247.578 10.3828 248.117 9.98438 248.977 9.98438C249.883 9.98438 250.414 10.4688 250.5 11.1328L250.508 11.1953H252.32L252.312 11.1094C252.242 9.67969 251.039 8.54688 248.977 8.54688C246.977 8.54688 245.656 9.57031 245.656 11.0859V11.0938C245.656 12.3203 246.453 13.0938 248.039 13.4453L249.414 13.75C250.273 13.9453 250.562 14.2266 250.562 14.7266V14.7344C250.562 15.3438 249.992 15.7266 249.047 15.7266C248.062 15.7266 247.523 15.3047 247.375 14.5938L247.359 14.5234H245.445L245.453 14.5938C245.625 16.1328 246.867 17.1641 249.039 17.1641Z" fill="#8B8B8B"/>
<path d="M311.984 17.1953C314.297 17.1953 315.641 15.8516 315.641 13.5625V5.72656H313.633V13.5469C313.633 14.7734 313.055 15.4297 311.961 15.4297C310.969 15.4297 310.438 14.7812 310.383 13.9141L310.375 13.8516H308.406L308.414 13.9375C308.492 15.875 309.789 17.1953 311.984 17.1953ZM321.156 17.1641C323.586 17.1641 325.164 15.5469 325.164 12.8594V12.8438C325.164 10.1719 323.562 8.54688 321.148 8.54688C318.742 8.54688 317.148 10.1875 317.148 12.8438V12.8594C317.148 15.5391 318.719 17.1641 321.156 17.1641ZM321.164 15.5938C319.922 15.5938 319.133 14.6016 319.133 12.8594V12.8438C319.133 11.125 319.938 10.125 321.148 10.125C322.383 10.125 323.18 11.1172 323.18 12.8438V12.8594C323.18 14.5938 322.391 15.5938 321.164 15.5938ZM331.039 17.1641C333.133 17.1641 334.461 15.5234 334.461 12.8594V12.8516C334.461 10.1797 333.125 8.54688 331.047 8.54688C329.875 8.54688 328.93 9.14844 328.461 10.1406H328.414V5.72656H326.469V17H328.414V15.5938H328.461C328.93 16.5703 329.844 17.1641 331.039 17.1641ZM330.453 15.5234C329.25 15.5234 328.414 14.4844 328.414 12.8594V12.8516C328.414 11.2344 329.258 10.1875 330.453 10.1875C331.695 10.1875 332.477 11.2031 332.477 12.8516V12.8594C332.477 14.5078 331.703 15.5234 330.453 15.5234ZM338.945 17.1641C340.977 17.1641 342.422 16.1172 342.422 14.5547V14.5469C342.422 13.3438 341.758 12.6719 340.047 12.2891L338.664 11.9844C337.805 11.7891 337.484 11.4766 337.484 11V10.9922C337.484 10.3828 338.023 9.98438 338.883 9.98438C339.789 9.98438 340.32 10.4688 340.406 11.1328L340.414 11.1953H342.227L342.219 11.1094C342.148 9.67969 340.945 8.54688 338.883 8.54688C336.883 8.54688 335.562 9.57031 335.562 11.0859V11.0938C335.562 12.3203 336.359 13.0938 337.945 13.4453L339.32 13.75C340.18 13.9453 340.469 14.2266 340.469 14.7266V14.7344C340.469 15.3438 339.898 15.7266 338.953 15.7266C337.969 15.7266 337.43 15.3047 337.281 14.5938L337.266 14.5234H335.352L335.359 14.5938C335.531 16.1328 336.773 17.1641 338.945 17.1641Z" fill="#8B8B8B"/>
</svg>
